<svg width="593" height="586" viewBox="0 0 593 586" fill="none" xmlns="http://www.w3.org/2000/svg">
<path fill-rule="evenodd" clip-rule="evenodd" d="M319.811 0.331937C378.648 -3.60792 441.861 27.8568 474.41 77.0295C504.884 123.067 457.764 187.02 477.513 238.577C499.317 295.496 580.821 317.106 589.484 377.44C599.476 447.02 589.22 543.22 525.531 572.968C458.299 604.371 394 501.898 319.811 503.4C242.682 504.961 180.906 606.492 107.95 581.419C38.0079 557.382 -4.36075 467.421 0.357009 393.614C4.94302 321.869 93.3659 289.86 130.521 228.314C155.311 187.248 148.914 133.679 179.556 96.7734C216.709 52.026 261.78 4.21778 319.811 0.331937Z" fill="#CDD3DA"/>
</svg>
