<svg width="618" height="539" viewBox="0 0 618 539" fill="none" xmlns="http://www.w3.org/2000/svg">
<path fill-rule="evenodd" clip-rule="evenodd" d="M329.304 0.518803C356.148 -0.510001 383.064 -0.654179 408.994 6.36397C435.993 13.6712 457.342 33.8717 483.985 42.3841C526.035 55.8192 587.374 34.6729 612.08 71.2501C634.835 104.94 584.805 147.952 582.712 188.551C580.941 222.911 615.665 258.222 600.84 289.272C584.966 322.521 526.751 315.131 507.329 346.44C485.236 382.057 510.654 433.907 488.898 469.731C467.895 504.313 430.838 536.855 390.425 538.933C348.214 541.103 320.252 490.182 279.105 480.519C240.201 471.383 196.07 502.748 160.318 484.897C125.393 467.458 108.026 425.616 95.2699 388.728C83.3322 354.207 104.589 313.518 89.5444 280.232C71.2636 239.786 10.7522 225.125 1.68756 181.676C-6.49947 142.433 16.2094 97.8912 45.8774 70.926C77.1743 42.4804 125.018 44.1607 165.704 32.6022C194.35 24.4638 222.722 18.114 251.946 12.3829C277.766 7.3195 303.012 1.52647 329.304 0.518803Z" fill="#CDD3DA"/>
</svg>
