<svg width="309" height="539" viewBox="0 0 309 539" fill="none" xmlns="http://www.w3.org/2000/svg">
<path opacity="0.5" fill-rule="evenodd" clip-rule="evenodd" d="M20.304 0.518803C47.1478 -0.510001 74.0641 -0.654179 99.9943 6.36397C126.993 13.6712 148.342 33.8717 174.985 42.3841C217.035 55.8192 278.374 34.6729 303.08 71.2501C325.835 104.94 275.805 147.952 273.712 188.551C271.941 222.911 306.665 258.222 291.84 289.272C275.966 322.521 217.751 315.131 198.329 346.44C176.236 382.057 201.654 433.907 179.898 469.731C158.895 504.313 121.838 536.855 81.4249 538.933C39.214 541.103 11.2516 490.182 -29.8954 480.519C-68.7993 471.383 -112.93 502.748 -148.682 484.897C-183.607 467.458 -200.974 425.616 -213.73 388.728C-225.668 354.207 -204.411 313.518 -219.456 280.232C-237.736 239.786 -298.248 225.125 -307.312 181.676C-315.499 142.434 -292.791 97.8912 -263.123 70.926C-231.826 42.4804 -183.982 44.1607 -143.296 32.6022C-114.65 24.4638 -86.2779 18.114 -57.0541 12.3829C-31.2344 7.3195 -5.98834 1.52647 20.304 0.518803Z" fill="#586F7C"/>
</svg>
