<svg width="800" height="698" viewBox="0 0 800 698" fill="none" xmlns="http://www.w3.org/2000/svg">
<path fill-rule="evenodd" clip-rule="evenodd" d="M426.283 0.671845C461.033 -0.660447 495.876 -0.847156 529.442 8.24128C564.392 17.7041 592.029 43.8635 626.518 54.887C680.952 72.2854 760.354 44.901 792.336 92.2682C821.793 135.897 757.029 191.597 754.32 244.172C752.027 288.668 796.977 334.395 777.787 374.604C757.238 417.661 681.879 408.091 656.737 448.637C628.137 494.76 661.041 561.906 632.877 608.297C605.69 653.081 557.719 695.222 505.404 697.913C450.762 700.724 414.565 634.781 361.3 622.268C310.939 610.437 253.812 651.054 207.531 627.937C162.321 605.354 139.839 551.169 123.327 503.399C107.873 458.694 135.39 406.003 115.915 362.898C92.2506 310.521 13.9188 291.535 2.18454 235.269C-8.41356 184.45 20.983 126.768 59.3883 91.8485C99.902 55.0118 161.836 57.1877 214.503 42.2195C251.586 31.6804 288.313 23.4574 326.144 16.0358C359.567 9.47868 392.248 1.97677 426.283 0.671845Z" fill="#CDD3DA"/>
</svg>
