<svg width="340" height="338" viewBox="0 0 340 338" fill="none" xmlns="http://www.w3.org/2000/svg">
<path fill-rule="evenodd" clip-rule="evenodd" d="M159.446 9.00055C188.23 15.1917 209.257 36.1658 235.584 49.3502C269.338 66.2541 318.683 63.1067 335.241 97.0382C351.588 130.537 321.435 167.634 310.728 203.339C299.694 240.131 300.436 283.245 271.742 308.774C242.121 335.128 199.084 338.556 159.446 337.935C120.32 337.323 74.0301 335.93 49.6752 305.295C25.5282 274.922 52.5594 229.6 43.3483 191.903C35.284 158.901 -2.10572 136.285 0.0931299 102.382C2.46107 65.8723 23.5513 29.0272 55.1115 10.5327C85.875 -7.4949 124.588 1.50313 159.446 9.00055Z" fill="#B8DBD9"/>
</svg>
